<svg width="150px" viewBox="0 0 790 525" version="1.1" xmlns="http://www.w3.org/2000/svg" xmlns:xlink="http://www.w3.org/1999/xlink" xml:space="preserve" xmlns:serif="http://www.serif.com/" style="fill-rule:evenodd;clip-rule:evenodd;stroke-linejoin:round;stroke-miterlimit:1.41421;">
        <g transform="matrix(1,0,0,1,-13157.3,-10915.5)">
            <g transform="matrix(0.404704,0,0,0.404704,8153.06,6733.34)">
                <g id="export.black" transform="matrix(0.25536,0,0,0.150771,10933.7,10511.1)">
                    <g id="Ellipse_3" transform="matrix(15.3186,0,0,25.9451,10083.7,2072.83)">
                        <circle cx="80.5" cy="80.5" r="80.5" style="fill:none;stroke:rgb(221,68,69);stroke-width:0.63px;"/>
                        <circle cx="80.5" cy="80.5" r="66" style="fill:none;stroke:rgb(221,68,69);stroke-width:29px;stroke-linejoin:miter;stroke-miterlimit:4;"/>
                    </g>
                    <g id="Path_6" transform="matrix(15.3186,0,0,25.9451,10712.3,2407.78)">
                        <path d="M39.413,67.054L-10.574,-26.384" style="fill:none;fill-rule:nonzero;stroke:rgb(221,68,69);stroke-width:29px;stroke-linecap:round;stroke-linejoin:miter;stroke-miterlimit:4;"/>
                    </g>
                    <g id="Path_8" transform="matrix(15.3186,0,0,25.9451,9683.81,2407.34)">
                        <path d="M-18.271,63.734L52.475,-26.384" style="fill:none;fill-rule:nonzero;stroke:rgb(221,68,69);stroke-width:29px;stroke-linecap:round;stroke-linejoin:miter;stroke-miterlimit:4;"/>
                    </g>
                    <g id="Path_10" transform="matrix(15.3186,0,0,25.9451,7820.25,2407.34)">
                        <path d="M-18.271,63.734L52.475,-26.384" style="fill:none;fill-rule:nonzero;stroke:rgb(221,68,69);stroke-width:29px;stroke-linecap:round;stroke-linejoin:miter;stroke-miterlimit:4;"/>
                    </g>
                    <g id="Path_11" transform="matrix(15.3186,0,0,25.9451,7820.74,3889.8)">
                        <path d="M-18.271,7.03L100.576,7.03" style="fill:none;fill-rule:nonzero;stroke:rgb(221,68,69);stroke-width:29px;stroke-linecap:round;stroke-linejoin:miter;stroke-miterlimit:4;"/>
                    </g>
                    <g id="Path_12" transform="matrix(15.3186,0,0,25.9451,8939.31,1492.15)">
                        <path d="M-18.271,7.03L100.576,7.03" style="fill:none;fill-rule:nonzero;stroke:rgb(221,68,69);stroke-width:29px;stroke-linecap:round;stroke-linejoin:miter;stroke-miterlimit:4;"/>
                    </g>
                    <g id="Path_13" transform="matrix(15.3186,0,0,25.9451,10305,1060.58)">
                        <path d="M-18.271,63.734L52.475,-26.384" style="fill:none;fill-rule:nonzero;stroke:rgb(221,68,69);stroke-width:29px;stroke-linecap:round;stroke-linejoin:miter;stroke-miterlimit:4;"/>
                    </g>
                    <g id="Path_14" transform="matrix(15.3186,0,0,25.9451,10591.8,1060.58)">
                        <path d="M-7.25,-26.384L33.772,-26.384" style="fill:none;fill-rule:nonzero;stroke:rgb(221,68,69);stroke-width:29px;stroke-linecap:round;stroke-linejoin:miter;stroke-miterlimit:4;"/>
                    </g>
                    <g id="Ellipse_4" transform="matrix(15.3186,0,0,25.9451,6300,2072.83)">
                        <circle cx="80.5" cy="80.5" r="80.5" style="fill:none;stroke:rgb(221,68,69);stroke-width:0.63px;"/>
                        <circle cx="80.5" cy="80.5" r="66" style="fill:none;stroke:rgb(221,68,69);stroke-width:29px;stroke-linejoin:miter;stroke-miterlimit:4;"/>
                    </g>
                    <g id="Path_17" transform="matrix(15.3186,0,0,25.9451,8261.98,1130.56)">
                        <path d="M19.7,-26.384L-17.2,-26.384" style="fill:none;fill-rule:nonzero;stroke:rgb(221,68,69);stroke-width:29px;stroke-linecap:round;stroke-linejoin:miter;stroke-miterlimit:4;"/>
                    </g>
                    <g id="Path_18" transform="matrix(15.3186,0,0,25.9451,8469.99,1382.9)">
                        <path d="M5.5,12.542L-3.448,-7.234L-12.392,-27.01" style="fill:none;fill-rule:nonzero;stroke:rgb(221,68,69);stroke-width:29px;stroke-linecap:round;stroke-linejoin:miter;stroke-miterlimit:4;"/>
                    </g>
                </g>
            </g>
        </g>
    </svg>